<?xml version="1.0" standalone="no"?>
<!DOCTYPE svg PUBLIC "-//W3C//DTD SVG 20010904//EN"
 "http://www.w3.org/TR/2001/REC-SVG-20010904/DTD/svg10.dtd">
<svg version="1.0" xmlns="http://www.w3.org/2000/svg"
 width="257.000000pt" height="226.000000pt" viewBox="0 0 257.000000 226.000000"
 preserveAspectRatio="xMidYMid meet">
<metadata>
Created by potrace 1.16, written by Peter Selinger 2001-2019
</metadata>
<g transform="translate(0.000000,226.000000) scale(0.100000,-0.100000)"
fill="#000000" stroke="none">
<path d="M920 2038 c-44 -12 -88 -52 -107 -97 -19 -45 -19 -177 0 -222 35 -84
119 -117 218 -87 l39 11 0 104 c0 91 -2 103 -17 103 -10 0 -28 3 -40 6 -27 7
-32 -12 -8 -30 10 -7 16 -32 17 -74 3 -70 -5 -82 -59 -82 -79 0 -114 48 -114
159 0 90 19 137 65 156 71 30 142 11 172 -46 21 -42 36 -25 32 37 l-3 49 -55
12 c-68 14 -95 14 -140 1z"/>
<path d="M1334 2032 c-17 -11 -42 -37 -55 -58 -21 -34 -24 -51 -24 -134 0 -77
4 -103 21 -135 30 -57 75 -85 138 -85 68 0 115 26 146 81 22 38 25 56 25 134
0 99 -20 150 -73 190 -39 29 -137 32 -178 7z m140 -43 c39 -18 61 -73 61 -154
0 -81 -22 -136 -61 -154 -40 -18 -98 -13 -127 9 -64 50 -63 240 1 291 28 21
87 25 126 8z"/>
<path d="M1895 2041 c-85 -21 -129 -68 -148 -156 -13 -66 0 -149 33 -194 44
-63 155 -88 255 -58 34 11 41 18 48 50 5 21 7 41 4 44 -3 3 -22 -7 -42 -23
-47 -36 -133 -45 -180 -20 -67 36 -94 145 -57 228 23 54 55 78 111 85 59 8
100 -12 122 -61 10 -22 15 -44 13 -48 -3 -4 2 -5 10 -2 9 3 17 11 17 18 8 68
6 106 -4 115 -11 8 -131 33 -147 30 -3 -1 -18 -4 -35 -8z"/>
<path d="M330 2032 c0 -5 17 -14 39 -20 69 -21 69 -26 -8 -179 -38 -76 -83
-151 -100 -167 -17 -17 -31 -33 -31 -36 0 -4 32 -7 70 -6 72 0 82 7 54 37 -15
16 -14 22 10 74 l25 56 67 -3 66 -3 25 -59 c22 -54 23 -61 9 -72 -33 -23 -19
-37 32 -29 26 4 49 9 51 11 2 2 -39 93 -91 201 l-95 198 -61 3 c-34 2 -62 -1
-62 -6z"/>
<path d="M470 2031 c0 -5 42 -96 94 -204 94 -194 94 -194 131 -201 45 -9 72 9
41 26 -40 23 -65 61 -142 223 -68 141 -82 165 -101 165 -13 0 -23 -4 -23 -9z"/>
<path d="M1226 1970 c-46 -55 -57 -133 -30 -212 15 -45 58 -97 70 -85 4 3 -1
24 -10 47 -21 52 -21 178 -1 227 26 62 13 73 -29 23z"/>
<path d="M2140 1732 c0 -4 18 -26 41 -47 97 -95 177 -227 221 -365 19 -63 23
-95 22 -200 0 -108 -4 -136 -28 -210 -49 -149 -117 -253 -249 -376 -218 -204
-522 -314 -867 -314 -164 0 -294 19 -426 61 -248 79 -460 225 -581 401 -67 98
-88 140 -118 245 -44 150 -33 322 31 487 5 14 3 17 -7 14 -7 -2 -25 -33 -39
-69 -13 -35 -27 -66 -30 -69 -3 -3 -6 -14 -6 -25 -1 -11 -6 -58 -12 -105 -55
-453 293 -869 839 -1004 678 -167 1387 159 1539 706 71 255 0 542 -185 745
-31 35 -54 67 -50 73 3 5 0 7 -7 5 -8 -3 -27 8 -43 25 -28 29 -45 38 -45 22z"/>
<path d="M1648 1525 c-20 -7 -40 -10 -44 -7 -4 4 -4 2 -1 -4 3 -6 -4 -16 -16
-23 -12 -7 -37 -32 -55 -57 l-33 -44 -192 0 c-106 1 -352 7 -547 14 -369 15
-389 13 -413 -25 -14 -23 -1 -66 25 -80 16 -9 87 -9 287 0 486 20 815 25 839
12 12 -6 28 -24 36 -40 22 -42 78 -79 147 -97 73 -19 174 -8 286 30 231 78
264 175 91 260 -138 68 -318 95 -410 61z"/>
<path d="M1595 1033 c-27 -7 -53 -31 -81 -75 l-24 -38 -203 0 c-111 0 -323 5
-472 10 -452 17 -430 17 -454 -4 -27 -24 -27 -60 0 -87 21 -21 28 -22 148 -16
366 18 942 30 965 19 13 -6 37 -30 53 -53 42 -63 59 -66 306 -45 345 30 332
28 333 54 1 23 -10 30 -21 12 -8 -12 -465 -14 -465 -2 0 9 255 22 413 22 77 0
79 1 73 23 -3 12 -6 25 -6 30 0 4 -28 6 -62 5 -62 -1 -63 -1 -18 -8 26 -4 -44
-8 -165 -8 -121 -1 -216 2 -225 8 -10 7 21 10 96 10 203 0 384 12 384 25 0 17
-78 25 -260 26 -85 0 -175 4 -200 8 -29 6 48 9 210 10 168 0 250 -3 240 -9 -8
-5 -10 -10 -4 -10 5 0 15 5 21 11 30 30 -14 40 -284 64 -148 14 -270 24 -273
24 -3 -1 -14 -4 -25 -6z"/>
</g>
</svg>
